<?xml version="1.0" encoding="UTF-8" standalone="no"?>
<!DOCTYPE svg PUBLIC "-//W3C//DTD SVG 1.1//EN" "http://www.w3.org/Graphics/SVG/1.1/DTD/svg11.dtd">
<svg width="456" height="456" viewBox="0 0 456 456" version="1.1" xmlns="http://www.w3.org/2000/svg" xmlns:xlink="http://www.w3.org/1999/xlink" xml:space="preserve" xmlns:serif="http://www.serif.com/" style="fill-rule:evenodd;clip-rule:evenodd;stroke-linejoin:round;stroke-miterlimit:2;">
    <path d="M 14.25 106.201 L 0 106.201 L 0 1.201 L 62.25 1.201 L 62.25 13.501 L 14.25 13.501 L 14.25 45.601 L 54.3 45.601 L 54.3 57.301 L 14.25 57.301 L 14.25 106.201 Z" id="0" style="fill:#ffffff;fill-rule:nonzero;stroke-width:0.838376"/> 
    <path d="M 154.8 101.701 L 141.45 108.001 L 128.4 79.501 Q 124.491 71.09 118.99 66.515 A 24.316 24.316 0 0 0 115.95 64.351 A 29.478 29.478 0 0 0 107.699 61.047 Q 104.012 60.15 99.697 59.926 A 56.771 56.771 0 0 0 96.75 59.851 L 94.5 59.851 L 94.5 106.201 L 80.25 106.201 L 80.25 1.501 A 371.851 371.851 0 0 1 91.795 0.587 A 323.669 323.669 0 0 1 95.475 0.376 A 281.911 281.911 0 0 1 104.95 0.054 A 339.402 339.402 0 0 1 111 0.001 Q 130.2 0.001 139.875 7.801 Q 149.53 15.585 149.55 27.85 A 31.288 31.288 0 0 1 149.55 27.901 A 29.82 29.82 0 0 1 148.574 35.731 A 22.008 22.008 0 0 1 143.025 45.526 A 31.534 31.534 0 0 1 135.639 51.042 Q 130.734 53.748 124.2 55.501 A 35.485 35.485 0 0 1 129.343 58.295 A 30.641 30.641 0 0 1 131.4 59.776 Q 134.353 62.096 137.108 65.866 A 43.941 43.941 0 0 1 137.475 66.376 A 46.667 46.667 0 0 1 139.679 69.818 Q 141.525 72.976 143.4 77.101 L 154.8 101.701 Z M 94.5 12.601 L 94.5 47.851 L 111 47.851 Q 121.8 47.851 128.55 43.051 Q 135.3 38.251 135.3 29.251 A 14.717 14.717 0 0 0 130.39 18.055 A 19.909 19.909 0 0 0 129 16.876 A 20.884 20.884 0 0 0 122.454 13.543 Q 117.581 12.001 111 12.001 A 298.818 298.818 0 0 0 106.449 12.034 Q 104.002 12.071 101.85 12.151 Q 97.8 12.301 94.5 12.601 Z" id="1" style="fill:#ffffff;fill-rule:nonzero;stroke-width:0.838376"/>
    <path d="M 258 102.451 L 244.95 107.701 L 233.25 77.701 L 184.65 77.701 L 172.95 107.401 L 160.8 102.451 L 201.9 1.201 L 217.5 1.201 L 258 102.451 Z M 208.95 15.301 L 189.15 65.701 L 228.6 65.701 L 208.95 15.301 Z" id="2" style="fill:#ffffff;fill-rule:nonzero;stroke-width:0.838376"/>
    <path d="M 286.5 106.201 L 273 106.201 L 273 1.201 L 291.9 1.201 L 338.25 88.501 L 338.25 1.201 L 351.75 1.201 L 351.75 106.201 L 333.15 106.201 L 286.5 19.501 L 286.5 106.201 Z" id="3" style="fill:#ffffff;fill-rule:nonzero;stroke-width:0.838376" />
    <path d="M 453.9 97.801 L 444 108.001 L 393 57.901 L 393 106.201 L 378.75 106.201 L 378.75 1.201 L 393 1.201 L 393 49.051 L 437.7 0.751 L 447.3 9.601 L 406.35 52.201 L 453.9 97.801 Z" style="fill:#ffffff;fill-rule:nonzero;stroke-width:0.838376" />
  </svg>